<?xml version="1.0" encoding="UTF-8" standalone="no"?>
<!DOCTYPE svg PUBLIC "-//W3C//DTD SVG 1.1//EN" "http://www.w3.org/Graphics/SVG/1.1/DTD/svg11.dtd">
<svg version="1.1" xmlns="http://www.w3.org/2000/svg" xmlns:xlink="http://www.w3.org/1999/xlink" preserveAspectRatio="xMidYMid meet" viewBox="0.8039626458003752 0.7054718720241788 84.53311394487866 35.47682216695601" width="117" height="45.73"><defs><path d="M40.66 30.34L39.32 30.66C38.92 30.19 38.71 29.93 38.66 29.87C37.91 30.28 37.07 30.49 36.21 30.49C33.42 30.49 31.22 28.32 31.22 25.56C31.22 22.79 33.41 20.61 36.21 20.61C39.02 20.61 41.21 22.78 41.21 25.56C41.21 26.9 40.66 28.2 39.67 29.14C39.81 29.3 40.14 29.7 40.66 30.34ZM39.74 25.56C39.74 23.5 38.21 21.94 36.21 21.94C34.21 21.94 32.7 23.5 32.7 25.56C32.7 27.61 34.23 29.18 36.21 29.18C36.77 29.18 37.31 29.06 37.79 28.82C37.71 28.72 37.29 28.22 36.54 27.31L37.88 26.98L38.78 28.06C39.43 27.01 39.75 26.17 39.74 25.56Z" id="a2h5Etr5wF"></path><path d="M45.65 29.28C46.34 29.31 46.99 28.97 47.36 28.37C47.36 28.04 47.36 26.37 47.36 23.36L48.73 23.36L48.73 30.32L47.36 30.32C47.36 29.9 47.36 29.67 47.36 29.62C46.81 30.18 46.05 30.48 45.27 30.45C43.66 30.45 42.56 29.34 42.56 27.73C42.56 27.44 42.56 25.98 42.56 23.35L43.91 23.35L43.91 27.52C44.35 28.69 44.93 29.28 45.65 29.28Z" id="c7gFdfp0Bl"></path><path d="M52.8 26.23C53.46 26.23 54.1 26.36 54.71 26.61C54.71 26.54 54.71 25.95 54.71 25.87C54.71 24.89 54.11 24.4 53.01 24.4C52.34 24.4 51.65 24.61 50.85 24.99C50.8 24.89 50.39 24.07 50.34 23.96C51.32 23.5 52.23 23.25 53.19 23.25C54.98 23.25 56.04 24.14 56.04 25.74C56.04 26.05 56.04 27.58 56.04 30.35L54.69 30.35C54.69 29.99 54.69 29.78 54.69 29.74C54.09 30.23 53.31 30.49 52.54 30.47C51.02 30.47 49.98 29.59 49.98 28.35C49.98 26.95 51.17 26.23 52.8 26.23ZM54.69 28.8C54.69 28.67 54.69 27.69 54.69 27.57C54.14 27.28 53.52 27.14 52.9 27.16C51.94 27.16 51.28 27.58 51.28 28.31C51.3 29.01 51.94 29.45 52.85 29.45C52.85 29.45 52.85 29.45 52.85 29.45C53.74 29.31 54.35 29.09 54.69 28.8Z" id="aBPxxZuw4"></path><path d="M56.73 23.37L58.24 23.37L60.28 28.7L62.51 23.37L63.99 23.37C61.99 28.01 60.88 30.58 60.66 31.1C60.04 32.53 59.31 33.18 58 33.18C57.75 33.19 57.51 33.17 57.27 33.11C57.27 32.99 57.27 32.02 57.27 31.9C57.47 31.94 57.67 31.97 57.88 31.95C58.47 31.95 58.93 31.68 59.26 30.93C59.28 30.89 59.36 30.7 59.51 30.35L56.73 23.37Z" id="fMCuYSPX8"></path><path d="M18.52 12.63C20.17 12.63 22.55 12.29 22.55 10.33C22.55 10.18 22.54 10.02 22.51 9.88C22.41 9.45 21.63 6.04 21.54 5.61C21.31 4.68 21.11 4.25 19.47 3.43C18.18 2.78 15.4 1.71 14.57 1.71C13.81 1.71 13.57 2.69 12.68 2.69C11.79 2.69 11.15 1.96 10.32 1.96C9.53 1.96 9.02 2.5 8.62 3.6C8.62 3.6 7.52 6.72 7.37 7.18C7.35 7.26 7.33 7.35 7.35 7.44C7.33 8.66 12.11 12.63 18.52 12.63M22.81 11.13C23.04 12.21 23.04 12.33 23.04 12.46C23.04 14.3 20.97 15.33 18.24 15.33C12.07 15.33 6.69 11.72 6.69 9.34C6.69 9.01 6.75 8.68 6.88 8.38C4.67 8.48 1.8 8.88 1.8 11.41C1.8 15.55 11.62 20.66 19.39 20.66C25.35 20.66 26.85 17.96 26.85 15.84C26.85 14.16 25.41 12.26 22.81 11.13" id="gjaQoqBLL"></path><path d="M23.02 12.46C23.02 14.3 20.96 15.33 18.23 15.33C12.07 15.33 6.69 11.72 6.69 9.34C6.69 9.01 6.75 8.68 6.88 8.38C6.93 8.26 7.32 7.3 7.37 7.18C7.35 7.26 7.33 7.35 7.35 7.43C7.33 8.66 12.11 12.63 18.52 12.63C20.17 12.63 22.55 12.29 22.55 10.33C22.55 10.18 22.54 10.02 22.51 9.88C22.53 9.96 22.63 10.38 22.8 11.13C22.95 11.93 23.02 12.37 23.02 12.46Z" id="acIeRGEJIg"></path><path d="M80.7 16.19C81.23 16.17 81.76 16.09 82.27 15.96C82.27 15.78 82.27 14.33 82.27 14.14C81.94 14.25 81.6 14.3 81.26 14.3C80.55 14.3 80.28 14.08 80.28 13.42C80.28 13.23 80.28 12.3 80.28 10.63L82.34 10.63L82.34 8.76L80.28 8.76L80.28 6.39L78.05 6.88L78.05 8.76L76.57 8.76L76.57 10.63L78.05 10.63L78.05 13.86C78.68 15.41 79.56 16.19 80.7 16.19ZM71.07 13.89C71.07 13.41 71.56 13.17 72.29 13.17C72.74 13.17 73.19 13.22 73.62 13.34C73.62 13.44 73.62 14.19 73.62 14.29C73.2 14.53 72.71 14.65 72.23 14.63C71.5 14.63 71.08 14.36 71.07 13.89M71.77 16.21C72.56 16.21 73.19 16.04 73.79 15.65C73.79 15.68 73.79 15.82 73.79 16.09L76.01 16.09C76.01 13.27 76.01 11.71 76.01 11.39C76.01 9.6 74.79 8.63 72.79 8.63C71.67 8.63 70.57 8.89 69.37 9.43C69.45 9.6 70.09 10.91 70.17 11.08C71.03 10.72 71.75 10.5 72.39 10.5C73.31 10.5 73.78 10.85 73.78 11.59C73.78 11.63 73.78 11.91 73.78 11.95C73.24 11.8 72.68 11.74 72.12 11.74C70.24 11.74 69.11 12.53 69.11 13.93C69.11 15.24 70.12 16.21 71.77 16.21M61.97 16.09L61.97 12.29L65.96 12.29L65.96 16.08L68.34 16.08L68.34 6.39L65.96 6.39L65.96 10.12L61.97 10.12L61.97 6.39L59.59 6.39L59.59 16.09L61.97 16.09ZM50.52 12.42C50.52 11.37 51.35 10.56 52.44 10.56C53.01 10.55 53.56 10.75 54 11.13C54 11.39 54 13.43 54 13.68C53.58 14.08 53.02 14.29 52.44 14.26C51.36 14.26 50.52 13.46 50.52 12.42M56.23 16.08L56.23 5.9L54 6.39C54 8.04 54 8.96 54 9.14C53.43 8.81 52.79 8.66 52.13 8.66C49.99 8.66 48.32 10.3 48.32 12.41C48.3 14.46 49.94 16.15 52 16.17C52.02 16.17 52.04 16.17 52.06 16.17C52.77 16.17 53.46 15.95 54.02 15.54C54.02 15.58 54.02 15.76 54.02 16.08L56.23 16.08ZM43.86 10.46C44.57 10.46 45.16 10.92 45.4 11.62C45.1 11.62 42.65 11.62 42.35 11.62C42.57 10.89 43.12 10.46 43.86 10.46M40.08 12.43C40.08 14.57 41.82 16.22 44.07 16.22C45.31 16.22 46.2 15.9 47.13 15.12C46.98 14.99 45.79 13.93 45.64 13.8C45.3 14.16 44.78 14.36 44.18 14.36C43.4 14.38 42.68 13.92 42.37 13.2C42.72 13.2 44.46 13.2 47.59 13.2C47.59 12.87 47.59 12.68 47.59 12.64C47.59 10.31 46.02 8.64 43.89 8.64C41.81 8.62 40.1 10.27 40.07 12.34C40.08 12.37 40.08 12.39 40.08 12.43M37.46 9.52C37.46 10.12 37.02 10.62 36.23 10.62C36.07 10.62 35.28 10.62 33.87 10.62L33.87 8.43L36.23 8.43C37.05 8.77 37.46 9.13 37.46 9.52ZM33.87 16.08L33.87 12.55L35.69 12.55L37.52 16.08L40.18 16.08C38.9 13.75 38.18 12.46 38.04 12.2C39.15 11.75 39.87 10.67 39.87 9.47C39.87 7.73 38.5 6.38 36.45 6.38C36.12 6.38 34.47 6.38 31.5 6.38L31.49 16.08L33.87 16.08Z" id="c4mA6zDkkX"></path></defs><g><g><use xlink:href="#a2h5Etr5wF" opacity="1" fill="#ffffff" fill-opacity="1"></use><g><use xlink:href="#a2h5Etr5wF" opacity="1" fill-opacity="0" stroke="#000000" stroke-width="1" stroke-opacity="0"></use></g></g><g><use xlink:href="#c7gFdfp0Bl" opacity="1" fill="#ffffff" fill-opacity="1"></use><g><use xlink:href="#c7gFdfp0Bl" opacity="1" fill-opacity="0" stroke="#000000" stroke-width="1" stroke-opacity="0"></use></g></g><g><use xlink:href="#aBPxxZuw4" opacity="1" fill="#ffffff" fill-opacity="1"></use><g><use xlink:href="#aBPxxZuw4" opacity="1" fill-opacity="0" stroke="#000000" stroke-width="1" stroke-opacity="0"></use></g></g><g><use xlink:href="#fMCuYSPX8" opacity="1" fill="#ffffff" fill-opacity="1"></use><g><use xlink:href="#fMCuYSPX8" opacity="1" fill-opacity="0" stroke="#000000" stroke-width="1" stroke-opacity="0"></use></g></g><g><use xlink:href="#gjaQoqBLL" opacity="1" fill="#ee0000" fill-opacity="1"></use><g><use xlink:href="#gjaQoqBLL" opacity="1" fill-opacity="0" stroke="#000000" stroke-width="1" stroke-opacity="0"></use></g></g><g><use xlink:href="#acIeRGEJIg" opacity="1" fill="#000000" fill-opacity="1"></use><g><use xlink:href="#acIeRGEJIg" opacity="1" fill-opacity="0" stroke="#000000" stroke-width="1" stroke-opacity="0"></use></g></g><g><use xlink:href="#c4mA6zDkkX" opacity="1" fill="#ffffff" fill-opacity="1"></use><g><use xlink:href="#c4mA6zDkkX" opacity="1" fill-opacity="0" stroke="#000000" stroke-width="1" stroke-opacity="0"></use></g></g></g></svg>